# xmcd
#
# Track frame offsets:
#	150
#	20329
#	38815
#	57670
#	75032
#	92030
#	111605
#	129792
#	148432
#	169650
#	187880
#	206002
#	223737
#	238415
#	256047
#	273005
#	293097
#	311627
#
# Disc length: 4381 seconds
#
# Revision: 8
# Processed by: cddbd v1.5.2PL0 Copyright (c) Steve Scherf et al.
# Submitted via: EasyCDDAExtractor 15.3.0.1
#
DISCID=04111b12
DTITLE=Sentidos Opuestos - Historias De Amor - Lo Mejor De Sentidos Opuestos
DYEAR=2003
DGENRE=Latin
TTITLE0=Donde Estan
TTITLE1=Amor De Papel
TTITLE2=Escribeme En El Cielo
TTITLE3=Atrevete
TTITLE4=Tu Loco Amor
TTITLE5=Ardiente Tentacion
TTITLE6=Historias De Amor
TTITLE7=Cuando La Pobreza
TTITLE8=Bajamar
TTITLE9=Eternamente
TTITLE10=Mirame
TTITLE11=Fuego Y Pasion
TTITLE12=Fiesta
TTITLE13=De La Mano Del Angel
TTITLE14=Tu Y Yo
TTITLE15=Hecho Para Mi
TTITLE16=Obsesion
TTITLE17=Sentidos Opuestos
EXTD=
EXTT0=
EXTT1=
EXTT2=
EXTT3=
EXTT4=
EXTT5=
EXTT6=
EXTT7=
EXTT8=
EXTT9=
EXTT10=
EXTT11=
EXTT12=
EXTT13=
EXTT14=
EXTT15=
EXTT16=
EXTT17=
PLAYORDER=
